<svg xmlns="http://www.w3.org/2000/svg" viewBox="0 0 120 80" fill="none" stroke="#1b1b19" stroke-width="1.5" stroke-linecap="round" stroke-linejoin="round">
  <!-- Word-as-seedling spot illustration -->
  <!-- Soil mound -->
  <path d="M30 60 C 35 55, 45 53, 60 54 C 75 53, 85 55, 90 60 C 88 64, 80 66, 60 66 C 40 66, 32 64, 30 60 Z" fill="#d97757" fill-opacity="0.15" stroke="#d97757" stroke-width="1.25"/>
  <!-- Seedling stem -->
  <path d="M60 54 C 60 44, 60 34, 60 26" stroke-width="1.5"/>
  <!-- Left leaf -->
  <path d="M60 38 C 50 34, 40 30, 32 26 C 40 32, 50 38, 60 38" fill="none"/>
  <path d="M60 38 C 50 40, 42 38, 36 34" stroke-opacity="0.3" stroke-width="1"/>
  <!-- Right leaf -->
  <path d="M60 32 C 68 28, 76 24, 84 20 C 78 28, 70 32, 60 32" fill="none"/>
  <path d="M60 32 C 68 34, 76 32, 82 28" stroke-opacity="0.3" stroke-width="1"/>
  <!-- Top sprout -->
  <path d="M60 26 C 58 22, 60 18, 62 16" stroke-width="1.25"/>
  <path d="M60 22 C 56 20, 54 18, 52 18" stroke-opacity="0.4" stroke-width="1"/>
  <path d="M60 22 C 64 20, 66 18, 68 18" stroke-opacity="0.4" stroke-width="1"/>
  <!-- Tiny letters in soil representing words growing -->
  <text x="50" y="63" font-family="Georgia, serif" font-size="6" fill="#1b1b19" fill-opacity="0.3" stroke="none">abc</text>
</svg>
